<mxfile host="Electron" agent="Mozilla/5.0 (Windows NT 10.0; Win64; x64) AppleWebKit/537.36 (KHTML, like Gecko) draw.io/28.0.6 Chrome/138.0.7204.100 Electron/37.2.3 Safari/537.36" version="28.0.6" pages="2">
  <diagram id="1zcTAVt1k4KSup7FvAfL" name="Roadmap">
    <mxGraphModel dx="4397" dy="2998" grid="1" gridSize="10" guides="1" tooltips="1" connect="1" arrows="1" fold="1" page="1" pageScale="1" pageWidth="3300" pageHeight="2339" math="0" shadow="0">
      <root>
        <mxCell id="3D7FDG2aXA9G618_Kong-0" />
        <mxCell id="3D7FDG2aXA9G618_Kong-1" parent="3D7FDG2aXA9G618_Kong-0" />
        <mxCell id="wGroBH12Sy7-OgBsN0fJ-2" value="" style="shape=rect;fillColor=#fff2cc;strokeColor=none;fontSize=24;html=1;whiteSpace=wrap;align=left;verticalAlign=top;spacing=5;rounded=0;" parent="3D7FDG2aXA9G618_Kong-1" vertex="1">
          <mxGeometry x="-2500" y="-930" width="1610" height="180" as="geometry" />
        </mxCell>
        <mxCell id="wGroBH12Sy7-OgBsN0fJ-4" value="" style="shape=rect;fillColor=#fff2cc;strokeColor=none;fontSize=24;html=1;whiteSpace=wrap;align=left;verticalAlign=top;spacing=5;rounded=0;" parent="3D7FDG2aXA9G618_Kong-1" vertex="1">
          <mxGeometry x="-2500" y="-1146.8" width="1610" height="196.8" as="geometry" />
        </mxCell>
        <mxCell id="wGroBH12Sy7-OgBsN0fJ-5" value="Внедрение и настройка Trinio" style="shape=rect;fillColor=#ffe6cc;strokeColor=#d79b00;fontSize=18;html=1;whiteSpace=wrap;align=center;verticalAlign=top;spacing=5;rounded=0;" parent="3D7FDG2aXA9G618_Kong-1" vertex="1">
          <mxGeometry x="-2480" y="-1120" width="350" height="50" as="geometry" />
        </mxCell>
        <mxCell id="wGroBH12Sy7-OgBsN0fJ-7" value="Data domain team" style="rounded=0;whiteSpace=wrap;html=1;fillColor=#f5f5f5;fontColor=#333333;strokeColor=#666666;fontSize=18;" parent="3D7FDG2aXA9G618_Kong-1" vertex="1">
          <mxGeometry x="-2630" y="-1146.8" width="120" height="196.8" as="geometry" />
        </mxCell>
        <mxCell id="wGroBH12Sy7-OgBsN0fJ-8" value="Self-service portal team" style="rounded=0;whiteSpace=wrap;html=1;fillColor=#f5f5f5;fontColor=#333333;strokeColor=#666666;fontSize=18;" parent="3D7FDG2aXA9G618_Kong-1" vertex="1">
          <mxGeometry x="-2630" y="-930" width="120" height="180" as="geometry" />
        </mxCell>
        <mxCell id="wGroBH12Sy7-OgBsN0fJ-9" value="Q1" style="shape=step;perimeter=stepPerimeter;whiteSpace=wrap;html=1;fixedSize=1;size=10;fillColor=#f5f5f5;strokeColor=#666666;fontSize=18;fontStyle=1;align=center;rounded=0;fontColor=#333333;" parent="3D7FDG2aXA9G618_Kong-1" vertex="1">
          <mxGeometry x="-2500" y="-1240" width="1610" height="74.4" as="geometry" />
        </mxCell>
        <mxCell id="IwjHChfryJVAvP4rh9vF-6" value="" style="shape=rect;fillColor=#fff2cc;strokeColor=none;fontSize=24;html=1;whiteSpace=wrap;align=left;verticalAlign=top;spacing=5;rounded=0;" vertex="1" parent="3D7FDG2aXA9G618_Kong-1">
          <mxGeometry x="-870" y="-930" width="1610" height="180" as="geometry" />
        </mxCell>
        <mxCell id="IwjHChfryJVAvP4rh9vF-7" value="" style="shape=rect;fillColor=#fff2cc;strokeColor=none;fontSize=24;html=1;whiteSpace=wrap;align=left;verticalAlign=top;spacing=5;rounded=0;" vertex="1" parent="3D7FDG2aXA9G618_Kong-1">
          <mxGeometry x="-880" y="-1146.8" width="1610" height="196.8" as="geometry" />
        </mxCell>
        <mxCell id="IwjHChfryJVAvP4rh9vF-8" value="Разработка сервиса передачи данных" style="shape=rect;fillColor=#ffe6cc;strokeColor=#d79b00;fontSize=18;html=1;whiteSpace=wrap;align=center;verticalAlign=top;spacing=5;rounded=0;" vertex="1" parent="3D7FDG2aXA9G618_Kong-1">
          <mxGeometry x="-850" y="-1120" width="390" height="50" as="geometry" />
        </mxCell>
        <mxCell id="IwjHChfryJVAvP4rh9vF-9" value="Q2" style="shape=step;perimeter=stepPerimeter;whiteSpace=wrap;html=1;fixedSize=1;size=10;fillColor=#f5f5f5;strokeColor=#666666;fontSize=18;fontStyle=1;align=center;rounded=0;fontColor=#333333;" vertex="1" parent="3D7FDG2aXA9G618_Kong-1">
          <mxGeometry x="-870" y="-1240" width="1610" height="74.4" as="geometry" />
        </mxCell>
        <mxCell id="IwjHChfryJVAvP4rh9vF-11" value="" style="shape=rect;fillColor=#fff2cc;strokeColor=none;fontSize=24;html=1;whiteSpace=wrap;align=left;verticalAlign=top;spacing=5;rounded=0;" vertex="1" parent="3D7FDG2aXA9G618_Kong-1">
          <mxGeometry x="760" y="-930" width="1610" height="180" as="geometry" />
        </mxCell>
        <mxCell id="IwjHChfryJVAvP4rh9vF-12" value="" style="shape=rect;fillColor=#fff2cc;strokeColor=none;fontSize=24;html=1;whiteSpace=wrap;align=left;verticalAlign=top;spacing=5;rounded=0;" vertex="1" parent="3D7FDG2aXA9G618_Kong-1">
          <mxGeometry x="760" y="-1146.8" width="1610" height="196.8" as="geometry" />
        </mxCell>
        <mxCell id="IwjHChfryJVAvP4rh9vF-13" value="Внедрение Airflow" style="shape=rect;fillColor=#ffe6cc;strokeColor=#d79b00;fontSize=18;html=1;whiteSpace=wrap;align=center;verticalAlign=top;spacing=5;rounded=0;" vertex="1" parent="3D7FDG2aXA9G618_Kong-1">
          <mxGeometry x="80" y="-1070" width="390" height="50" as="geometry" />
        </mxCell>
        <mxCell id="IwjHChfryJVAvP4rh9vF-14" value="Q3" style="shape=step;perimeter=stepPerimeter;whiteSpace=wrap;html=1;fixedSize=1;size=10;fillColor=#f5f5f5;strokeColor=#666666;fontSize=18;fontStyle=1;align=center;rounded=0;fontColor=#333333;" vertex="1" parent="3D7FDG2aXA9G618_Kong-1">
          <mxGeometry x="760" y="-1240" width="1610" height="74.4" as="geometry" />
        </mxCell>
        <mxCell id="IwjHChfryJVAvP4rh9vF-16" value="" style="shape=rect;fillColor=#fff2cc;strokeColor=none;fontSize=24;html=1;whiteSpace=wrap;align=left;verticalAlign=top;spacing=5;rounded=0;" vertex="1" parent="3D7FDG2aXA9G618_Kong-1">
          <mxGeometry x="2390" y="-930" width="1610" height="180" as="geometry" />
        </mxCell>
        <mxCell id="IwjHChfryJVAvP4rh9vF-17" value="" style="shape=rect;fillColor=#fff2cc;strokeColor=none;fontSize=24;html=1;whiteSpace=wrap;align=left;verticalAlign=top;spacing=5;rounded=0;" vertex="1" parent="3D7FDG2aXA9G618_Kong-1">
          <mxGeometry x="2390" y="-1146.8" width="1610" height="196.8" as="geometry" />
        </mxCell>
        <mxCell id="IwjHChfryJVAvP4rh9vF-18" value="Тестирование нового функционала" style="shape=rect;fillColor=#ffe6cc;strokeColor=#d79b00;fontSize=18;html=1;whiteSpace=wrap;align=left;verticalAlign=top;spacing=5;rounded=0;" vertex="1" parent="3D7FDG2aXA9G618_Kong-1">
          <mxGeometry x="1450" y="-1120" width="390" height="50" as="geometry" />
        </mxCell>
        <mxCell id="IwjHChfryJVAvP4rh9vF-19" value="Q4" style="shape=step;perimeter=stepPerimeter;whiteSpace=wrap;html=1;fixedSize=1;size=10;fillColor=#f5f5f5;strokeColor=#666666;fontSize=18;fontStyle=1;align=center;rounded=0;fontColor=#333333;" vertex="1" parent="3D7FDG2aXA9G618_Kong-1">
          <mxGeometry x="2390" y="-1240" width="1610" height="74.4" as="geometry" />
        </mxCell>
        <mxCell id="IwjHChfryJVAvP4rh9vF-21" value="Внедение и настройка Kafka" style="shape=rect;fillColor=#ffe6cc;strokeColor=#d79b00;fontSize=18;html=1;whiteSpace=wrap;align=center;verticalAlign=top;spacing=5;rounded=0;" vertex="1" parent="3D7FDG2aXA9G618_Kong-1">
          <mxGeometry x="-1920" y="-1073.4" width="340" height="50" as="geometry" />
        </mxCell>
        <mxCell id="IwjHChfryJVAvP4rh9vF-23" value="Стандартизация BI" style="shape=rect;fillColor=#ffe6cc;strokeColor=#d79b00;fontSize=18;html=1;whiteSpace=wrap;align=center;verticalAlign=top;spacing=5;rounded=0;" vertex="1" parent="3D7FDG2aXA9G618_Kong-1">
          <mxGeometry x="-1320" y="-1030" width="340" height="50" as="geometry" />
        </mxCell>
        <mxCell id="IwjHChfryJVAvP4rh9vF-24" value="Внедрение и настройка Iceberg" style="shape=rect;fillColor=#ffe6cc;strokeColor=#d79b00;fontSize=18;html=1;whiteSpace=wrap;align=center;verticalAlign=top;spacing=5;rounded=0;" vertex="1" parent="3D7FDG2aXA9G618_Kong-1">
          <mxGeometry x="-420" y="-1120" width="390" height="50" as="geometry" />
        </mxCell>
        <mxCell id="IwjHChfryJVAvP4rh9vF-25" value="Внедрение и настройка S3" style="shape=rect;fillColor=#ffe6cc;strokeColor=#d79b00;fontSize=18;html=1;whiteSpace=wrap;align=center;verticalAlign=top;spacing=5;rounded=0;" vertex="1" parent="3D7FDG2aXA9G618_Kong-1">
          <mxGeometry x="-420" y="-1060" width="390" height="50" as="geometry" />
        </mxCell>
        <mxCell id="IwjHChfryJVAvP4rh9vF-26" value="Настройка Data Catalog и Lineage" style="shape=rect;fillColor=#ffe6cc;strokeColor=#d79b00;fontSize=18;html=1;whiteSpace=wrap;align=center;verticalAlign=top;spacing=5;rounded=0;" vertex="1" parent="3D7FDG2aXA9G618_Kong-1">
          <mxGeometry x="795" y="-1120" width="390" height="50" as="geometry" />
        </mxCell>
        <mxCell id="IwjHChfryJVAvP4rh9vF-27" value="Разработка бэкенда для портала самообслуживания" style="shape=rect;fillColor=#ffe6cc;strokeColor=#d79b00;fontSize=18;html=1;whiteSpace=wrap;align=center;verticalAlign=top;spacing=5;rounded=0;" vertex="1" parent="3D7FDG2aXA9G618_Kong-1">
          <mxGeometry x="-850" y="-910" width="850" height="80" as="geometry" />
        </mxCell>
        <mxCell id="IwjHChfryJVAvP4rh9vF-28" value="Внедрение Redis для кеширования" style="shape=rect;fillColor=#ffe6cc;strokeColor=#d79b00;fontSize=18;html=1;whiteSpace=wrap;align=center;verticalAlign=top;spacing=5;rounded=0;" vertex="1" parent="3D7FDG2aXA9G618_Kong-1">
          <mxGeometry x="50" y="-910" width="400" height="60" as="geometry" />
        </mxCell>
        <mxCell id="IwjHChfryJVAvP4rh9vF-32" value="Создание API Gateway для портала самообслуживания" style="shape=rect;fillColor=#ffe6cc;strokeColor=#d79b00;fontSize=18;html=1;whiteSpace=wrap;align=center;verticalAlign=top;spacing=5;rounded=0;" vertex="1" parent="3D7FDG2aXA9G618_Kong-1">
          <mxGeometry x="1140" y="-830" width="400" height="60" as="geometry" />
        </mxCell>
        <mxCell id="IwjHChfryJVAvP4rh9vF-33" value="Внедрение нового функционала" style="shape=rect;fillColor=#ffe6cc;strokeColor=#d79b00;fontSize=18;html=1;whiteSpace=wrap;align=center;verticalAlign=top;spacing=5;rounded=0;" vertex="1" parent="3D7FDG2aXA9G618_Kong-1">
          <mxGeometry x="1900" y="-1123.4" width="390" height="50" as="geometry" />
        </mxCell>
        <mxCell id="IwjHChfryJVAvP4rh9vF-34" value="Вывод из использования устаревших технологий" style="shape=rect;fillColor=#ffe6cc;strokeColor=#d79b00;fontSize=18;html=1;whiteSpace=wrap;align=center;verticalAlign=top;spacing=5;rounded=0;" vertex="1" parent="3D7FDG2aXA9G618_Kong-1">
          <mxGeometry x="2430" y="-1060" width="390" height="50" as="geometry" />
        </mxCell>
        <mxCell id="IwjHChfryJVAvP4rh9vF-36" value="Сопровождение нового функционала" style="shape=rect;fillColor=#ffe6cc;strokeColor=#d79b00;fontSize=18;html=1;whiteSpace=wrap;align=center;verticalAlign=top;spacing=5;rounded=0;" vertex="1" parent="3D7FDG2aXA9G618_Kong-1">
          <mxGeometry x="2930" y="-1123.4" width="390" height="50" as="geometry" />
        </mxCell>
        <mxCell id="IwjHChfryJVAvP4rh9vF-37" value="Разаработка фронтэнда портала самообслуживания" style="shape=rect;fillColor=#ffe6cc;strokeColor=#d79b00;fontSize=18;html=1;whiteSpace=wrap;align=center;verticalAlign=top;spacing=5;rounded=0;" vertex="1" parent="3D7FDG2aXA9G618_Kong-1">
          <mxGeometry x="800" y="-910" width="400" height="60" as="geometry" />
        </mxCell>
        <mxCell id="IwjHChfryJVAvP4rh9vF-39" value="Q1 — Фундамент платформы и быстрые выигрыши&#xa;&#xa;&#xa;Внедрение и настройка Trino&#xa;&#xa;&#xa;Зачем: единый SQL-движок поверх Iceberg/S3 для портала и BI без повторной логики в DWH. Даёт «одну точку чтения», ускоряет доступ к данным.&#xa;Эффект: меньше копий датасетов, быстрее отчёты, проще масштабирование.&#xa;&#xa;&#xa;Внедрение и настройка Kafka&#xa;&#xa;Зачем: шина событий для доменных потоков и CDC. Развязывает системы, ускоряет time-to-market новых интеграций.&#xa;Эффект: меньше batch-обмена через DWH, ближе к near-real-time витринам.&#xa;&#xa;&#xa;Внедрение и настройка S3 + Iceberg&#xa;&#xa;Зачем: Lakehouse-хранилище с ACID, schema evolution и time-travel. Основа для дешёвого и надёжного хранения данных.&#xa;Эффект: надёжные пересчёты, атомарные публикации витрин, откаты при ошибках.&#xa;&#xa;&#xa;Стандартизация BI&#xa;&#xa;Зачем: уйти от «разрозненных» отчётов к управляемым датасетам и общему словарю метрик.&#xa;Эффект: единые KPI, меньше споров о достоверности данных, ускорение сборки дашбордов." style="text;whiteSpace=wrap;fontSize=14;" vertex="1" parent="3D7FDG2aXA9G618_Kong-1">
          <mxGeometry x="-2470" y="-730" width="560" height="710" as="geometry" />
        </mxCell>
        <mxCell id="IwjHChfryJVAvP4rh9vF-40" value="Q2 — Инженеринг потоков и поставки&#xa;&#xa;&#xa;Разработка сервиса передачи данных (стрим/ETL-сервис)&#xa;&#xa;Зачем: нормализовывать события/CDC из Kafka и писать в Iceberg (Upsert/Merge, дедупликация, SCD).&#xa;Эффект: устойчивые данные без «ручного» SQL в DWH.&#xa;&#xa;&#xa;Разработка бэкенда портала самообслуживания&#xa;&#xa;Зачем: слой агрегации/авторизации поверх Trino/витрин; подготовка к self-service.&#xa;Эффект: быстрые пользовательские сценарии без прямого доступа к сырым данным.&#xa;&#xa;&#xa;Внедрение Redis для кеширования&#xa;&#xa;Зачем: ускорить частые чтения портала/BI (кеш горячих запросов, токенов, малых справочников).&#xa;Эффект: стабильный p95, меньше нагрузки на Trino.&#xa;&#xa;&#xa;Создание API Gateway для портала&#xa;&#xa;Зачем: единая точка входа (rate-limit, authn/authz, аудит), контракт с фронтом.&#xa;Эффект: безопасность и управляемость трафика, удобная эволюция API." style="text;whiteSpace=wrap;fontSize=14;" vertex="1" parent="3D7FDG2aXA9G618_Kong-1">
          <mxGeometry x="-870" y="-730" width="560" height="670" as="geometry" />
        </mxCell>
        <mxCell id="IwjHChfryJVAvP4rh9vF-41" value="Q3 — Управляемость и наблюдаемость&#xa;&#xa;&#xa;Внедрение Airflow (оркестрация)&#xa;&#xa;Зачем: управляемые DAG’и, зависимости, ретраи, SLA свежести витрин.&#xa;Эффект: предсказуемость поставки, меньше ручных запусков.&#xa;&#xa;&#xa;Настройка Data Catalog &amp; Lineage&#xa;&#xa;Зачем: прозрачность владельцев, схем, качества и происхождения данных.&#xa;Эффект: доверие к витринам, упрощение аудитов и онбординга.&#xa;&#xa;&#xa;Разработка фронтенда портала самообслуживания&#xa;&#xa;Зачем: визуальный конструктор запросов/дашбордов, доступ к сертифицированным датасетам.&#xa;Эффект: снижение нагрузки на инженеров, первые self-service-кейсы.&#xa;&#xa;&#xa;Тестирование нового функционала&#xa;&#xa;Зачем: зафиксировать стабильность после расширения потоков/оркестрации.&#xa;Эффект: снижает риски перед выводом легаси и масштабированием потребителей." style="text;whiteSpace=wrap;fontSize=14;" vertex="1" parent="3D7FDG2aXA9G618_Kong-1">
          <mxGeometry x="760" y="-730" width="560" height="660" as="geometry" />
        </mxCell>
        <mxCell id="IwjHChfryJVAvP4rh9vF-42" value="Q4 — Вывод легаси и стабилизация&#xa;&#xa;&#xa;Внедрение нового функционала&#xa;&#xa;Зачем: закрыть оставшиеся фичи, зависящие от новых компонентов (портал/каталог/оркестрация).&#xa;Эффект: завершённый пользовательский контур, готовность к миграции.&#xa;&#xa;&#xa;Вывод из использования устаревших технологий&#xa;&#xa;Зачем: отключить аналитику от SQL Server 2008/PowerBuilder-завязок; снизить риски и затраты.&#xa;Эффект: меньше поддержки легаси, единый стек.&#xa;&#xa;&#xa;Сопровождение нового функционала&#xa;&#xa;Зачем: стабилизация, SLO/SLA.&#xa;Эффект: предсказуемая стоимость и доступность." style="text;whiteSpace=wrap;" vertex="1" parent="3D7FDG2aXA9G618_Kong-1">
          <mxGeometry x="2390" y="-730" width="560" height="510" as="geometry" />
        </mxCell>
      </root>
    </mxGraphModel>
  </diagram>
  <diagram id="6faDem5PxRRIMGQd80wj" name="Roadmap_change">
    <mxGraphModel grid="1" page="1" gridSize="10" guides="1" tooltips="1" connect="1" arrows="1" fold="1" pageScale="1" pageWidth="3300" pageHeight="2339" math="0" shadow="0">
      <root>
        <mxCell id="0" />
        <mxCell id="1" parent="0" />
        <mxCell id="QlwB00z0-otb056kdUWZ-19" value="" style="shape=rect;fillColor=#fff2cc;strokeColor=none;fontSize=24;html=1;whiteSpace=wrap;align=left;verticalAlign=top;spacing=5;rounded=0;" vertex="1" parent="1">
          <mxGeometry x="-2500" y="-530" width="1620" height="190" as="geometry" />
        </mxCell>
        <mxCell id="QlwB00z0-otb056kdUWZ-18" value="" style="shape=rect;fillColor=#fff2cc;strokeColor=none;fontSize=24;html=1;whiteSpace=wrap;align=left;verticalAlign=top;spacing=5;rounded=0;" vertex="1" parent="1">
          <mxGeometry x="-2500" y="-730" width="1620" height="180" as="geometry" />
        </mxCell>
        <mxCell id="QlwB00z0-otb056kdUWZ-17" value="" style="shape=rect;fillColor=#fff2cc;strokeColor=none;fontSize=24;html=1;whiteSpace=wrap;align=left;verticalAlign=top;spacing=5;rounded=0;" vertex="1" parent="1">
          <mxGeometry x="-2500" y="-930" width="1610" height="180" as="geometry" />
        </mxCell>
        <mxCell id="QlwB00z0-otb056kdUWZ-3" value="" style="shape=rect;fillColor=#fff2cc;strokeColor=none;fontSize=24;html=1;whiteSpace=wrap;align=left;verticalAlign=top;spacing=5;rounded=0;" vertex="1" parent="1">
          <mxGeometry x="-2500" y="-1146.8" width="1610" height="196.8" as="geometry" />
        </mxCell>
        <mxCell id="QlwB00z0-otb056kdUWZ-4" value="T1 - API сервиса интеграции депозитов АБС" style="shape=rect;fillColor=#ffe6cc;strokeColor=#d79b00;fontSize=18;html=1;whiteSpace=wrap;align=left;verticalAlign=top;spacing=5;rounded=0;" vertex="1" parent="1">
          <mxGeometry x="-2480" y="-1120" width="390" height="50" as="geometry" />
        </mxCell>
        <mxCell id="QlwB00z0-otb056kdUWZ-5" value="T2 - Передача файлов на SFTP-сервер" style="shape=rect;fillColor=#ffe6cc;strokeColor=#d79b00;fontSize=18;html=1;whiteSpace=wrap;align=center;verticalAlign=top;spacing=5;rounded=0;" vertex="1" parent="1">
          <mxGeometry x="-2120" y="-1040" width="550" height="60" as="geometry" />
        </mxCell>
        <mxCell id="QlwB00z0-otb056kdUWZ-6" value="АБС&lt;div&gt;Сервис интеграции депозитов&lt;/div&gt;" style="rounded=0;whiteSpace=wrap;html=1;fillColor=#f5f5f5;fontColor=#333333;strokeColor=#666666;fontSize=18;" vertex="1" parent="1">
          <mxGeometry x="-2630" y="-1146.8" width="120" height="196.8" as="geometry" />
        </mxCell>
        <mxCell id="QlwB00z0-otb056kdUWZ-7" value="SFTP" style="rounded=0;whiteSpace=wrap;html=1;fillColor=#f5f5f5;fontColor=#333333;strokeColor=#666666;fontSize=18;" vertex="1" parent="1">
          <mxGeometry x="-2630" y="-930" width="120" height="180" as="geometry" />
        </mxCell>
        <mxCell id="QlwB00z0-otb056kdUWZ-8" value="Q2" style="shape=step;perimeter=stepPerimeter;whiteSpace=wrap;html=1;fixedSize=1;size=10;fillColor=#f5f5f5;strokeColor=#666666;fontSize=18;fontStyle=1;align=center;rounded=0;fontColor=#333333;" vertex="1" parent="1">
          <mxGeometry x="-2500" y="-1240" width="1610" height="74.4" as="geometry" />
        </mxCell>
        <mxCell id="QlwB00z0-otb056kdUWZ-11" value="T5 - Вывод ставок пользователю системы колл-центра" style="shape=rect;fillColor=#ffe6cc;strokeColor=#d79b00;fontSize=18;html=1;whiteSpace=wrap;align=center;verticalAlign=top;spacing=5;rounded=0;" vertex="1" parent="1">
          <mxGeometry x="-1860" y="-640" width="940" height="50" as="geometry" />
        </mxCell>
        <mxCell id="QlwB00z0-otb056kdUWZ-12" value="T4 - Получение ставок через API интеграции АБС" style="shape=rect;fillColor=#ffe6cc;strokeColor=#d79b00;fontSize=18;html=1;whiteSpace=wrap;align=center;verticalAlign=top;spacing=5;rounded=0;" vertex="1" parent="1">
          <mxGeometry x="-2060" y="-720" width="480" height="60" as="geometry" />
        </mxCell>
        <mxCell id="QlwB00z0-otb056kdUWZ-13" value="T6 - Получение файлов с SFTP для операторов партнера" style="shape=rect;fillColor=#ffe6cc;strokeColor=#d79b00;fontSize=18;html=1;whiteSpace=wrap;align=center;verticalAlign=top;spacing=5;rounded=0;" vertex="1" parent="1">
          <mxGeometry x="-1560" y="-470" width="640" height="50" as="geometry" />
        </mxCell>
        <mxCell id="QlwB00z0-otb056kdUWZ-14" value="Система колл-центра" style="rounded=0;whiteSpace=wrap;html=1;fillColor=#f5f5f5;fontColor=#333333;strokeColor=#666666;fontSize=18;" vertex="1" parent="1">
          <mxGeometry x="-2630" y="-730" width="120" height="180" as="geometry" />
        </mxCell>
        <mxCell id="QlwB00z0-otb056kdUWZ-15" value="Система&amp;nbsp; партнерского колл-центра" style="rounded=0;whiteSpace=wrap;html=1;fillColor=#f5f5f5;fontColor=#333333;strokeColor=#666666;fontSize=18;" vertex="1" parent="1">
          <mxGeometry x="-2630" y="-530" width="120" height="190" as="geometry" />
        </mxCell>
        <mxCell id="QlwB00z0-otb056kdUWZ-16" value="T3 - Развернуть SFTP сервер" style="shape=rect;fillColor=#ffe6cc;strokeColor=#d79b00;fontSize=18;html=1;whiteSpace=wrap;align=center;verticalAlign=top;spacing=5;rounded=0;" vertex="1" parent="1">
          <mxGeometry x="-2400" y="-910" width="280" height="60" as="geometry" />
        </mxCell>
      </root>
    </mxGraphModel>
  </diagram>
</mxfile>
